<svg width="31" height="54" viewBox="0 0 31 54" fill="none" xmlns="http://www.w3.org/2000/svg">
<path fill-rule="evenodd" clip-rule="evenodd" d="M16.4987 0C17.3272 0 17.9987 0.671573 17.9987 1.5V1.65116V1.80166V1.95151V2.10071V2.24927V2.39718V2.54446V2.6911V2.8371V2.98247V3.1272V3.27132V3.4148V3.55766V3.69991V3.84153V3.98254V4.12294V4.26273V4.40191V4.54049V4.67847V4.81584V4.95262V5.08881V5.2244V5.3594V5.49382V5.62765V5.7609V5.89357V6.02567V6.15719V6.28814V6.41852V6.54833V6.67758V6.80627V6.9344V7.06198V7.189V7.31547V7.44139V7.56676V7.6916V7.81589V7.93964V8.06286V8.18554V8.3077V8.42933V8.55043V8.671V8.79106V8.9106V9.02963V9.14814V9.26614V9.38363V9.50062V9.61711V9.7331V9.84859V9.96358V10.0781V10.1921V10.3056V10.4187V10.5312V10.6433V10.7549V10.866V10.9767V11.0869V11.1966V11.3059V11.4146V11.523V11.6309V11.7383V11.8453V11.9518V12.0579V12.1635V12.2687V12.3734V12.4778V12.5817V12.6851V12.7881V12.8907V12.9929V13.0947V13.196V13.2969V13.3974V13.4975V13.5972V13.6965V13.7954V13.8939V13.992V14.0897V14.187V14.2839V14.3804V14.4765V14.5723V14.6676V14.7626V14.8573V14.9515V15.0454V15.1389V15.232V15.3248V15.4173V15.5093V15.601V15.6924V15.7834V15.8741V15.9644V16.0544V16.144V16.2333V16.3223V16.4109V16.4993V16.5872V16.6749V16.7622V16.8493V16.936V17.0224V17.1084V17.1942V17.2797V17.3649V17.4497V17.5343V17.6186V17.7025V17.7862V17.8696V17.9527V18.0356V18.1181V18.2004V18.2824V18.3641V18.4456V18.5268V18.6077V18.6883V18.7687V18.8489V18.9288V19.0084V19.0878V19.1669V19.2458V19.3245V19.4029V19.4811V19.559V19.6367V19.7142V19.7915V19.8685V19.9453V20.0219V20.0983V20.1744V20.2504V20.3261V20.4017V20.477V20.5521V20.6271V20.7018V20.7763V20.8507V20.9248V20.9988V21.0726V21.1462V21.2197V21.2929V21.366V21.4389V21.5117V21.5843V21.6567V21.7289V21.801V21.873V21.9448V22.0164V22.0879V22.1593V22.2305V22.3016V22.3725V22.4433V22.514V22.5845V22.6549V22.7252V22.7954V22.8654V22.9353V23.0052V23.0749V23.1445V23.2139V23.2833V23.3526V23.4218V23.4909V23.5599V23.6288V23.6976V23.7663V23.8349V23.9035V23.972V24.0404V24.1087V24.177V24.2452V24.3133V24.3814V24.4494V24.5173V24.5852V24.6531V24.7209V24.7886V24.8563V24.924V24.9916V25.0591V25.1267V25.1942V25.2617V25.3291V25.3965V25.464V25.5313V25.5987V25.6661V25.7334V25.8007V25.868V25.9354V26.0027V26.07V26.1373V26.2047V26.272V26.3393V26.4067V26.4741V26.5415V26.6089V26.6763V26.7438V26.8113V26.8788V26.9464V27.014V27.0816V27.1493V27.217V27.2848V27.3526V27.4205V27.4884V27.5564V27.6244V27.6925V27.7607V27.8289V27.8972V27.9656V28.034V28.1026V28.1712V28.2399V28.3086V28.3775V28.4465V28.5155V28.5846V28.6539V28.7232V28.7927V28.8622V28.9319V29.0016V29.0715V29.1415V29.2116V29.2819V29.3522V29.4227V29.4933V29.5641V29.6349V29.7059V29.7771V29.8484V29.9198V29.9914V30.0631V30.135V30.2071V30.2793V30.3516V30.4241V30.4968V30.5696V30.6427V30.7158V30.7892V30.8627V30.9365V31.0104V31.0844V31.1587V31.2332V31.3078V31.3827V31.4577V31.533V31.6084V31.6841V31.7599V31.836V31.9123V31.9888V32.0655V32.1424V32.2196V32.297V32.3746V32.4524V32.5305V32.6088V32.6874V32.7662V32.8452V32.9245V33.004V33.0838V33.1638V33.2441V33.3247V33.4055V33.4866V33.5679V33.6495V33.7314V33.8136V33.896V33.9787V34.0617V34.145V34.2285V34.3124V34.3965V34.481V34.5657V34.6507V34.7361V34.8217V34.9077V34.9939V35.0805V35.1674V35.2546V35.3421V35.43V35.5182V35.6067V35.6955V35.7846V35.8741V35.964V36.0542V36.1447V36.2355V36.3268V36.4183V36.5102V36.6025V36.6951V36.7881V36.8815V36.9752V37.0693V37.1638V37.2586V37.3538V37.4494V37.5454V37.6417V37.7385V37.8356V37.9331V38.031V38.1294V38.2281V38.3272V38.4267V38.5266V38.627V38.7277V38.8289V38.9305V39.0325V39.1349V39.2377V39.341V39.4447V39.5488V39.6534V39.7584V39.8639V39.9697V40.0761V40.1829V40.2901V40.3978V40.5059V40.6145V40.7236V40.8331V40.9431V41.0535V41.1645V41.2759V41.3878V41.5001V41.6129V41.7263V41.8401V41.9544V42.0691V42.1844V42.3002V42.4165V42.5332V42.6505V42.7683V42.8866V43.0054V43.1247V43.2446V43.3649V43.4858V43.6072V43.7291V43.8516V43.9746V44.0981V44.2222V44.3468V44.4719V44.5976V44.7239V44.8506V44.9476L18.059 44.8582C19.4102 42.8632 21.0456 41.0481 22.224 39.8436C23.2245 38.8208 24.081 37.9616 25.0457 37.2555C26.0418 36.5264 27.1118 35.988 28.5453 35.5101C29.3312 35.2482 30.1807 35.6729 30.4426 36.4588C30.7046 37.2447 30.2799 38.0942 29.494 38.3562C28.302 38.7535 27.5213 39.1612 26.8176 39.6763C26.0825 40.2144 25.3899 40.8973 24.3685 41.9414C23.2557 43.0789 21.755 44.751 20.5429 46.5406C19.2896 48.391 18.524 50.1106 18.524 51.3985C18.524 52.2269 17.8524 52.8985 17.024 52.8985C16.9944 52.8985 16.9649 52.8976 16.9357 52.8959C16.831 52.9845 16.7124 53.0601 16.5812 53.1192C15.8257 53.4591 14.9377 53.1223 14.5977 52.3668C12.6857 48.1179 10.6673 43.9963 7.24711 41.2602C7.08122 41.1275 6.91869 40.9966 6.75881 40.8678L6.75715 40.8665C5.55934 39.9019 4.50947 39.0564 3.29919 38.4512C3.23011 38.4167 3.09603 38.3635 2.84821 38.2754C2.80188 38.2589 2.75154 38.2412 2.69829 38.2224L2.69799 38.2223L2.69744 38.2221C2.50474 38.1543 2.27398 38.073 2.05704 37.9885C1.77992 37.8806 1.44662 37.738 1.14111 37.5528C0.866989 37.3866 0.422919 37.074 0.158688 36.5456C-0.211796 35.8046 0.0885405 34.9036 0.829508 34.5331C1.49874 34.1985 2.29853 34.4111 2.72008 35.0013C2.80602 35.0504 2.9434 35.1142 3.14598 35.1931C3.31257 35.258 3.47899 35.3166 3.66317 35.3815L3.66379 35.3817C3.72497 35.4033 3.7881 35.4255 3.85385 35.4489C4.08413 35.5309 4.38463 35.6399 4.64083 35.768C6.16199 36.5285 7.47953 37.5928 8.64954 38.5378C8.80947 38.667 8.96664 38.7939 9.1212 38.9176C11.6707 40.9572 13.5135 43.6017 14.9987 46.325V46.2823V46.1493V46.0169V45.885V45.7538V45.623V45.4929V45.3633V45.2343V45.1059V44.978V44.8506V44.7239V44.5976V44.4719V44.3468V44.2222V44.0981V43.9746V43.8516V43.7291V43.6072V43.4858V43.3649V43.2446V43.1247V43.0054V42.8866V42.7683V42.6505V42.5332V42.4165V42.3002V42.1844V42.0691V41.9544V41.8401V41.7263V41.6129V41.5001V41.3878V41.2759V41.1645V41.0535V40.9431V40.8331V40.7236V40.6145V40.5059V40.3978V40.2901V40.1829V40.0761V39.9697V39.8639V39.7584V39.6534V39.5488V39.4447V39.341V39.2377V39.1349V39.0325V38.9305V38.8289V38.7277V38.627V38.5266V38.4267V38.3272V38.2281V38.1294V38.031V37.9331V37.8356V37.7385V37.6417V37.5454V37.4494V37.3538V37.2586V37.1638V37.0693V36.9752V36.8815V36.7881V36.6951V36.6025V36.5102V36.4183V36.3268V36.2355V36.1447V36.0542V35.964V35.8741V35.7846V35.6955V35.6067V35.5182V35.43V35.3421V35.2546V35.1674V35.0805V34.9939V34.9077V34.8217V34.7361V34.6507V34.5657V34.481V34.3965V34.3124V34.2285V34.145V34.0617V33.9787V33.896V33.8136V33.7314V33.6495V33.5679V33.4866V33.4055V33.3247V33.2441V33.1638V33.0838V33.004V32.9245V32.8452V32.7662V32.6874V32.6088V32.5305V32.4524V32.3746V32.297V32.2196V32.1424V32.0655V31.9888V31.9123V31.836V31.7599V31.6841V31.6084V31.533V31.4577V31.3827V31.3078V31.2332V31.1587V31.0844V31.0104V30.9365V30.8627V30.7892V30.7158V30.6427V30.5696V30.4968V30.4241V30.3516V30.2793V30.2071V30.135V30.0631V29.9914V29.9198V29.8484V29.7771V29.7059V29.6349V29.5641V29.4933V29.4227V29.3522V29.2819V29.2116V29.1415V29.0715V29.0016V28.9319V28.8622V28.7927V28.7232V28.6539V28.5846V28.5155V28.4465V28.3775V28.3086V28.2399V28.1712V28.1026V28.034V27.9656V27.8972V27.8289V27.7607V27.6925V27.6244V27.5564V27.4884V27.4205V27.3526V27.2848V27.217V27.1493V27.0816V27.014V26.9464V26.8788V26.8113V26.7438V26.6763V26.6089V26.5415V26.4741V26.4067V26.3393V26.272V26.2047V26.1373V26.07V26.0027V25.9354V25.868V25.8007V25.7334V25.6661V25.5987V25.5313V25.464V25.3965V25.3291V25.2617V25.1942V25.1267V25.0591V24.9916V24.924V24.8563V24.7886V24.7209V24.6531V24.5852V24.5173V24.4494V24.3814V24.3133V24.2452V24.177V24.1087V24.0404V23.972V23.9035V23.8349V23.7663V23.6976V23.6288V23.5599V23.4909V23.4218V23.3526V23.2833V23.2139V23.1445V23.0749V23.0052V22.9353V22.8654V22.7954V22.7252V22.6549V22.5845V22.514V22.4433V22.3725V22.3016V22.2305V22.1593V22.0879V22.0164V21.9448V21.873V21.801V21.7289V21.6567V21.5843V21.5117V21.4389V21.366V21.2929V21.2197V21.1462V21.0726V20.9988V20.9248V20.8507V20.7763V20.7018V20.6271V20.5521V20.477V20.4017V20.3261V20.2504V20.1744V20.0983V20.0219V19.9453V19.8685V19.7915V19.7142V19.6367V19.559V19.4811V19.4029V19.3245V19.2458V19.1669V19.0878V19.0084V18.9288V18.8489V18.7687V18.6883V18.6077V18.5268V18.4456V18.3641V18.2824V18.2004V18.1181V18.0356V17.9527V17.8696V17.7862V17.7025V17.6186V17.5343V17.4497V17.3649V17.2797V17.1942V17.1084V17.0224V16.936V16.8493V16.7622V16.6749V16.5872V16.4993V16.4109V16.3223V16.2333V16.144V16.0544V15.9644V15.8741V15.7834V15.6924V15.601V15.5093V15.4173V15.3248V15.232V15.1389V15.0454V14.9515V14.8573V14.7626V14.6676V14.5723V14.4765V14.3804V14.2839V14.187V14.0897V13.992V13.8939V13.7954V13.6965V13.5972V13.4975V13.3974V13.2969V13.196V13.0947V12.9929V12.8907V12.7881V12.6851V12.5817V12.4778V12.3734V12.2687V12.1635V12.0579V11.9518V11.8453V11.7383V11.6309V11.523V11.4146V11.3059V11.1966V11.0869V10.9767V10.866V10.7549V10.6433V10.5312V10.4187V10.3056V10.1921V10.0781V9.96358V9.84859V9.7331V9.61711V9.50062V9.38363V9.26614V9.14814V9.02963V8.9106V8.79106V8.671V8.55043V8.42933V8.3077V8.18554V8.06286V7.93964V7.81589V7.6916V7.56676V7.44139V7.31547V7.189V7.06198V6.9344V6.80627V6.67758V6.54833V6.41852V6.28814V6.15719V6.02567V5.89357V5.7609V5.62765V5.49382V5.3594V5.2244V5.08881V4.95262V4.81584V4.67847V4.54049V4.40191V4.26273V4.12294V3.98254V3.84153V3.69991V3.55766V3.4148V3.27132V3.1272V2.98247V2.8371V2.6911V2.54446V2.39718V2.24927V2.10071V1.95151V1.80166V1.65116V1.5C14.9987 0.671573 15.6703 0 16.4987 0ZM2.66899 34.9699C2.65836 34.9627 2.65388 34.9589 2.6543 34.9588C2.65472 34.9588 2.66003 34.9624 2.66899 34.9699Z" fill="white"/>
</svg>
