<svg width="980" height="799" viewBox="0 0 980 799" fill="none" xmlns="http://www.w3.org/2000/svg">
  <g filter="url(#filter0_f_2_28)">
    <path
      d="M322.422 175.807C299.245 192.172 279.269 209.18 263.283 233.022C257.145 242.176 251.856 255.816 248.865 266.902C244.64 282.558 234.479 289.295 223.314 299.929C210.804 311.843 197.276 321.478 183.865 332.305C170.812 342.844 154.29 353.426 150.15 370.947C146.077 388.179 146.429 412.939 156.03 428.107C165.729 443.428 184.502 453.738 200.8 460.48C222.249 469.352 243.723 477.883 265.406 486.154C286.688 494.272 308.247 501.709 329.564 509.785C351.413 518.061 371.753 530.268 392.107 541.557C420.45 557.278 447.79 582.064 469.258 606.312C487.25 626.635 522.472 638.313 548.103 643.48C581.46 650.205 613.287 653.688 647.462 650.411C689.785 646.352 729.694 630.654 765.57 607.793C782.18 597.209 795.474 583.825 808.808 569.502C818.974 558.583 829.115 545.22 831.628 530.116C837.108 497.193 825.809 474.426 803.99 450.102C788.155 432.447 771.439 414.813 757.687 395.451C738.511 368.453 724.332 337.14 713.518 305.943C700.754 269.122 689.342 231.136 654.916 208.33C606.548 176.289 546.677 158.469 489.532 152.379C462.558 149.505 433.335 146.438 406.286 149.494C378.92 152.586 345.401 159.582 322.422 175.807Z"
      fill="url(#paint0_angular_2_28)" />
  </g>
  <defs>
    <filter id="filter0_f_2_28" x="0.388229" y="0.925461" width="979.911" height="798.032" filterUnits="userSpaceOnUse"
      color-interpolation-filters="sRGB">
      <feFlood flood-opacity="0" result="BackgroundImageFix" />
      <feBlend mode="normal" in="SourceGraphic" in2="BackgroundImageFix" result="shape" />
      <feGaussianBlur stdDeviation="73.65" result="effect1_foregroundBlur_2_28" />
    </filter>
    <radialGradient id="paint0_angular_2_28" cx="0" cy="0" r="1" gradientUnits="userSpaceOnUse"
      gradientTransform="translate(496.387 396.577) rotate(96.0828) scale(242.097 347.69)">
      <stop offset="0.82" stop-color="#83D2E3" />
      <stop offset="1" stop-color="#272727" />
    </radialGradient>
  </defs>
</svg>
